<svg xmlns="http://www.w3.org/2000/svg" viewBox="0 0 30 30">
  <path d="M9.9980469 3C6.1390469 3 3 6.1419531 3 10.001953L3 20.001953C3 23.860953 6.1419531 27 10.001953 27L20.001953 27C23.860953 27 27 23.858047 27 19.998047L27 9.9980469C27 6.1390469 23.858047 3 19.998047 3L9.9980469 3 z M 22 7C22.552 7 23 7.448 23 8C23 8.552 22.552 9 22 9C21.448 9 21 8.552 21 8C21 7.448 21.448 7 22 7 z M 15 9C18.309 9 21 11.691 21 15C21 18.309 18.309 21 15 21C11.691 21 9 18.309 9 15C9 11.691 11.691 9 15 9 z M 15 11 A 4 4 0 0 0 11 15 A 4 4 0 0 0 15 19 A 4 4 0 0 0 19 15 A 4 4 0 0 0 15 11 z" fill="#03987A" />
</svg>